<?xml version="1.0" encoding="utf-8"?>
<?xml-stylesheet type="text/xsl" href="rss1.xsl"?>
<rss version="2.0" xmlns:atom="http://www.w3.org/2005/Atom" xmlns:content="http://purl.org/rss/1.0/modules/content/" xmlns:dc="http://purl.org/dc/elements/1.1/" xmlns:media="http://search.yahoo.com/mrss/">
<channel>
 <title>Getty</title>
 <link>http://www.gettyimg.com/</link>
 <atom:link href="http://www.gettyimg.com/" rel="self" type="application/rss+xml" />

 
                <item>
                <title><![CDATA[【Actresses】Alexandra Daddario - Burying the Ex (2014)1080p]]></title>
                <link><![CDATA[https://sharemania.us/threads/alexandra-daddario-burying-the-ex-2014-1080p.243810/]]></link>
                <description><![CDATA[<article>
<blockquote class="messageText SelectQuoteContainer ugc baseHtml">
Alexandra Daddario - Burying the Ex (2014)1080p<br>
<br>
<a href="https://imgbox.com/0wRDfFlM" target="_blank" class="externalLink" rel="nofollow"><img src="https://thumbs2.imgbox.com/74/cd/0wRDfFlM_t.jpg" class="bbCodeImage LbImage" alt="[​IMG]" data-url="https://thumbs2.imgbox.com/74/cd/0wRDfFlM_t.jpg"></a> <a href="https://imgbox.com/XenrwD5D" target="_blank" class="externalLink" rel="nofollow"><img src="https://thumbs2.imgbox.com/ce/4c/XenrwD5D_t.jpg" class="bbCodeImage LbImage" alt="[​IMG]" data-url="https://thumbs2.imgbox.com/ce/4c/XenrwD5D_t.jpg"></a> <a href="https://imgbox.com/ybExPHtE" target="_blank" class="externalLink" rel="nofollow"><img src="https://thumbs2.imgbox.com/b7/2f/ybExPHtE_t.jpg" class="bbCodeImage LbImage" alt="[​IMG]" data-url="https://thumbs2.imgbox.com/b7/2f/ybExPHtE_t.jpg"></a> <a href="https://imgbox.com/68JKNXbz" target="_blank" class="externalLink" rel="nofollow"><img src="https://thumbs2.imgbox.com/35/dd/68JKNXbz_t.jpg" class="bbCodeImage LbImage" alt="[​IMG]" data-url="https://thumbs2.imgbox.com/35/dd/68JKNXbz_t.jpg"></a> <a href="https://imgbox.com/oYJGYkO8" target="_blank" class="externalLink" rel="nofollow"><img src="https://thumbs2.imgbox.com/c3/eb/oYJGYkO8_t.jpg" class="bbCodeImage LbImage" alt="[​IMG]" data-url="https://thumbs2.imgbox.com/c3/eb/oYJGYkO8_t.jpg"></a> <a href="https://imgbox.com/LtxD1AyO" target="_blank" class="externalLink" rel="nofollow"><img src="https://thumbs2.imgbox.com/13/9d/LtxD1AyO_t.jpg" class="bbCodeImage LbImage" alt="[​IMG]" data-url="https://thumbs2.imgbox.com/13/9d/LtxD1AyO_t.jpg"></a><br>
Duration: 0:00:07 Resolution: 1088x1440 Format: mp4 Size: 10.04 MB<br>
<a href="https://filejoker.net/tziaocv2oxk5" target="_blank" class="externalLink" rel="nofollow">https://filejoker.net/tziaocv2oxk5</a>
<div class="messageTextEndMarker">&nbsp;</div>
</blockquote>
</article>]]></description>
                <author><![CDATA[piqeros]]></author>
                </item>

                
                <item>
                <title><![CDATA[【HD Live Performances】PACK - Madonna - Like a Prayer／La Isla Bonita／Music／Vogue  - The Celebration Tour in Copacabana Beach, RJ (2024) GLBO 1080i DD5.1 H.264]]></title>
                <link><![CDATA[https://sharemania.us/threads/madonna-like-a-prayer%EF%BC%8Fla-isla-bonita%EF%BC%8Fmusic%EF%BC%8Fvogue-the-celebration-tour-in-copacabana-beach-rj-2024-glbo-1080i-dd5-1-h-264.243813/]]></link>
                <description><![CDATA[<article>
<blockquote class="messageText SelectQuoteContainer ugc baseHtml">
<div style="text-align: center"><img src="https://i.ibb.co/BsMs7K8/Madonna-Like-a-Prayer-The-Celebration-Tour-in-Copacabana-Beach-RJ-2024-05-04-GLOBO-1080i-DD5-1-H-264.png" class="bbCodeImage LbImage" alt="[​IMG]" data-url="https://i.ibb.co/BsMs7K8/Madonna-Like-a-Prayer-The-Celebration-Tour-in-Copacabana-Beach-RJ-2024-05-04-GLOBO-1080i-DD5-1-H-264.png" style=""><br>
<img src="https://i.ibb.co/dQ8zzzQ/Madonna-Vogue-The-Celebration-Tour-in-Copacabana-Beach-RJ-2024-05-04-GLOBO-1080i-DD5-1-H-264-ts.png" class="bbCodeImage LbImage" alt="[​IMG]" data-url="https://i.ibb.co/dQ8zzzQ/Madonna-Vogue-The-Celebration-Tour-in-Copacabana-Beach-RJ-2024-05-04-GLOBO-1080i-DD5-1-H-264-ts.png" style=""><br>
<img src="https://i.ibb.co/9pVD6M4/Madonna-La-Isla-Bonita-Music-The-Celebration-Tour-in-Copacabana-Beach-RJ-2024-05-04-GLOBO-1080i-DD5.png" class="bbCodeImage LbImage" alt="[​IMG]" data-url="https://i.ibb.co/9pVD6M4/Madonna-La-Isla-Bonita-Music-The-Celebration-Tour-in-Copacabana-Beach-RJ-2024-05-04-GLOBO-1080i-DD5.png" style=""><br>
<div class="bbCodeBlock bbCodeVfcHH HiddenContent">
<div class="attribution type">Hidden Content:</div>
<blockquote>You must either reply or click 'Like' to see the hidden information contained here.</blockquote>
</div></div>
<div class="messageTextEndMarker">&nbsp;</div>
</blockquote>
</article>]]></description>
                <author><![CDATA[SCANDAL]]></author>
                </item>

                
                <item>
                <title><![CDATA[【UPSCALED】Art Garfunkel - Bright Eyes [4K AI Upscale | HEVC 10-bit | PCM]]]></title>
                <link><![CDATA[https://sharemania.us/threads/art-garfunkel-bright-eyes-4k-ai-upscale-hevc-10-bit-pcm.243804/]]></link>
                <description><![CDATA[<article>
<blockquote class="messageText SelectQuoteContainer ugc baseHtml">
<img src="https://images2.imgbox.com/54/07/cEvXJnyS_o.jpg" class="bbCodeImage LbImage" alt="[​IMG]" data-url="https://images2.imgbox.com/54/07/cEvXJnyS_o.jpg" style=""> <br>
<br>
<b>Genre: <span style="color: #0059b3">Rock, Pop</span> <br>
Style: <span style="color: #0059b3">Soft Rock, Ballad</span> <br>
Year: <span style="color: #0059b3">1978</span> <br>
Source: <span style="color: #0059b3">vob-clip.com, 576i, thanks ...</span></b><br>
<br>
"<b>Bright Eyes</b>" is a song written by British songwriter Mike Batt and performed by Art Garfunkel. It was written for the soundtrack of the 1978 British animated adventure drama film <i>Watership Down</i>. Rearranged as a pop song from its original form in the film, the track appears on British and European versions of Garfunkel's 1979 <i>Fate for Breakfast</i> and on the US versions of his 1981 album <i>Scissors Cut</i>. "Bright Eyes" topped the UK Singles Chart for six weeks and became Britain's biggest-selling single of 1979, selling over a million copies. Richard Adams, author of the original novel, is reported to have hated the song. A cover of the song was later used explicitly in the <i>Watership Down</i> television series as its theme song.<br>
<br>
The song was written, produced and arranged by Mike Batt for <i>Watership Down</i>, with original director John Hubley requesting a song about death. It plays when the rabbit Hazel, the lead character in the film, almost dies after being wounded by a farmer's gun and Fiver.<br>
Batt described recording the song as "one of the most difficult sessions" of his career as he wrote the lyrics with his father in mind who was terminally ill with cancer at the time.<br>
<br>
In 2023, the song featured heavily in the fifth episode of season six of the popular Netflix anthology series, <i>Black Mirror</i> , titled "Demon 79", which is set in 1979, the year of the song's release. The song serves as the episode's opening and closing theme.<br>
<br>
<b>Release Info</b><br>
Upscaled to 4K with Topaz Video AI and encoded to HEVC 10-bit.<br>
The PCM track is lossless (Qobuz), synced with Adobe Audition.<br>
The timed lyrics are created from scratch.<br>
Enable the subtitles to see the lyrics.<br>
<br>
<div class="ToggleTriggerAnchor bbCodeSpoilerContainer">
<button type="button" class="button bbCodeSpoilerButton ToggleTrigger Tooltip JsOnly" data-target="> .SpoilerTarget"><span>Spoiler: <span class="SpoilerTitle">Media Info</span></span></button>
<div class="SpoilerTarget bbCodeSpoilerText">
<div class="bbCodeBlock bbCodeCode">
<div class="type">Code:</div>
<pre>General
Unique ID                      : 74697453482078451964898551356191777977 (0x383234CC5860F1A677BF273D44B1A4B9)
Complete name                  : Art Garfunkel - Bright Eyes.mkv
Format                         : Matroska
Format version                 : Version 4 / Version 2
File size                      : 925 MiB
Duration                       : 4 min 0 s
Overall bit rate               : 32.2 Mb/s
Frame rate                     : 50.000 FPS
Encoded date                   : 2024-05-02 12:58:28 UTC
Writing application            : mkvmerge v84.0 ('Sleeper') 64-bit
Writing library                : libebml v1.4.5 + libmatroska v1.7.1

Video
ID                             : 1
Format                         : HEVC
Format/Info                    : High Efficiency Video Coding
Format profile                 : Main 10@L5.1@Main
Codec ID                       : V_MPEGH/ISO/HEVC
Duration                       : 4 min 0 s
Bit rate                       : 30.8 Mb/s
Width                          : 3 840 pixels
Height                         : 2 160 pixels
Display aspect ratio           : 16:9
Frame rate mode                : Constant
Frame rate                     : 50.000 FPS
Color space                    : YUV
Chroma subsampling             : 4:2:0
Bit depth                      : 10 bits
Bits/(Pixel*Frame)             : 0.074
Stream size                    : 884 MiB (96%)
Default                        : Yes
Forced                         : No
Color range                    : Limited
Color primaries                : BT.709
Transfer characteristics       : BT.709
Matrix coefficients            : BT.709

Audio
ID                             : 2
Format                         : PCM
Format settings                : Little / Signed
Codec ID                       : A_PCM/INT/LIT
Duration                       : 4 min 0 s
Bit rate mode                  : Constant
Bit rate                       : 1 411.2 kb/s
Channel(s)                     : 2 channels
Sampling rate                  : 44.1 kHz
Frame rate                     : 25.001 FPS (1764 SPF)
Bit depth                      : 16 bits
Stream size                    : 40.5 MiB (4%)
Title                          : Lossless
Language                       : English
Default                        : Yes
Forced                         : No

Text
ID                             : 3
Format                         : UTF-8
Codec ID                       : S_TEXT/UTF8
Codec ID/Info                  : UTF-8 Plain Text
Duration                       : 3 min 18 s
Bit rate                       : 36 b/s
Frame rate                     : 0.166 FPS
Count of elements              : 33
Stream size                    : 896 Bytes (0%)
Title                          : Lyrics
Language                       : English
Default                        : No
Forced                         : No
</pre>
</div></div>
</div><br>
<div class="bbCodeBlock bbCodeVfcHH HiddenContent">
<div class="attribution type">Hidden Content:</div>
<blockquote>You must reply before you can see the hidden data contained here.</blockquote>
</div>
<div class="messageTextEndMarker">&nbsp;</div>
</blockquote>
</article>]]></description>
                <author><![CDATA[ADHDerby]]></author>
                </item>

                
                <item>
                <title><![CDATA[【Requests】[REQ AUD] - Britney spears Albums from vinyl]]></title>
                <link><![CDATA[https://sharemania.us/threads/britney-spears-albums-from-vinyl.243798/]]></link>
                <description><![CDATA[<article>
<blockquote class="messageText SelectQuoteContainer ugc baseHtml">
Please if anyone can send 24bit 96khz at least first 4 albums. Any lossless quality will be also great. I love sound of vinyl
<div class="messageTextEndMarker">&nbsp;</div>
</blockquote>
</article>]]></description>
                <author><![CDATA[borisnikolic851]]></author>
                </item>

                
                <item>
                <title><![CDATA[【Albums (lossy)】Dolby Atmos - Conan Gray - Found Heaven | AMZN Dolby Digital Plus (Dolby Atmos) | E-AC-3 JOC | 5.1 | 32bits/48.0 kHz |]]></title>
                <link><![CDATA[https://sharemania.us/threads/conan-gray-found-heaven-amzn-dolby-digital-plus-dolby-atmos-e-ac-3-joc-5-1-32bits-48-0-khz.243808/]]></link>
                <description><![CDATA[<article>
<blockquote class="messageText SelectQuoteContainer ugc baseHtml">
<img src="https://a1.mzstatic.com/r40/Music126/v4/fa/8c/46/fa8c46c8-0668-b148-969b-d5ebc0df0159/24UMGIM06009.rgb.jpg" class="bbCodeImage LbImage" alt="[​IMG]" data-url="https://a1.mzstatic.com/r40/Music126/v4/fa/8c/46/fa8c46c8-0668-b148-969b-d5ebc0df0159/24UMGIM06009.rgb.jpg" style=""><br>
<br>
<b>File Information:</b><br>
Album: Found Heaven<br>
Album/Performer: Conan Gray<br>
File size: 217.8 MiB<br>
Format: MPEG-4<br>
Format profile: Base Media / Version 1<br>
Codec ID: mp41 (iso8/isom/mp41/dash/cmfc)<br>
<br>
<b>Audio Information:</b><br>
Format: E-AC-3 JOC<br>
Format/Info: Enhanced AC-3 with Joint Object Coding<br>
Commercial name: Dolby Digital Plus with Dolby Atmos<br>
Codec ID: ec-3<br>
Bit rate mode: Constant<br>
Bit rate: 768 kb/s<br>
Channel(s): 6 channels / 5.1<br>
Channel layout: L R C LFE Ls Rs<br>
Sampling rate: 48.0 kHz<br>
Frame rate: 31.250 FPS (1536 SPF)<br>
Compression mode: Lossy<br>
Stream size: 16.3 MiB (98%)<br>
Service kind: Complete Main<br>
<br>
<div class="bbCodeBlock bbCodeVfcHH HiddenContent">
<div class="attribution type">Hidden Content:</div>
<blockquote>You must either reply or click 'Like' to see the hidden information contained here.</blockquote>
</div>
<div class="messageTextEndMarker">&nbsp;</div>
</blockquote>
</article>]]></description>
                <author><![CDATA[kkgonea13]]></author>
                </item>

                
                <item>
                <title><![CDATA[【HD Live Performances】WEB-RiP - Dua Lipa# Illusion (Live) - SNL 2024]]></title>
                <link><![CDATA[https://sharemania.us/threads/dua-lipa-illusion-live-snl-2024.243799/]]></link>
                <description><![CDATA[<article>
<blockquote class="messageText SelectQuoteContainer ugc baseHtml">
<a href="https://mega.nz/file/vJEhACLZ#oLnpKh-IOvBP7cRztHS-qn3pJJH6RQzUlmBiDwhYt2c" target="_blank" class="externalLink" rel="nofollow">https://mega.nz/file/vJEhACLZ#oLnpKh-IOvBP7cRztHS-qn3pJJH6RQzUlmBiDwhYt2c</a>
<div class="messageTextEndMarker">&nbsp;</div>
</blockquote>
</article>]]></description>
                <author><![CDATA[butchy07]]></author>
                </item>

                
                <item>
                <title><![CDATA[【Requests】[REQ AUD] - Can somebody please get these songs please and thank you - Family Matters, Meet The Grahams, Not Like Us]]></title>
                <link><![CDATA[https://sharemania.us/threads/can-somebody-please-get-these-songs-please-and-thank-you-family-matters-meet-the-grahams-not-like-us.243795/]]></link>
                <description><![CDATA[<article>
<blockquote class="messageText SelectQuoteContainer ugc baseHtml">
Hi can somebody please get these songs in the highest hi-res lossless <a href="https://music.apple.com/ca/album/family-matters/1744684618?i=1744684622" target="_blank" class="externalLink" rel="nofollow"><br>
</a><br>
<a href="https://music.apple.com/ca/album/family-matters/1744684618?i=1744684622" target="_blank" class="externalLink" rel="nofollow">https://music.apple.com/ca/album/family-matters/1744684618?i=1744684622</a><br>
<a href="https://music.apple.com/ca/album/meet-the-grahams/1744776349?i=1744776350" target="_blank" class="externalLink" rel="nofollow">https://music.apple.com/ca/album/meet-the-grahams/1744776349?i=1744776350</a><br>
<a href="https://music.apple.com/ca/album/not-like-us/1744776162?i=1744776167" target="_blank" class="externalLink" rel="nofollow">https://music.apple.com/ca/album/not-like-us/1744776162?i=1744776167</a>
<div class="messageTextEndMarker">&nbsp;</div>
</blockquote>
</article>]]></description>
                <author><![CDATA[extrajohn2022]]></author>
                </item>

                
                <item>
                <title><![CDATA[【Cinema Center】MOVIE - Abigail (2024) 1080p WEB-DL DDP5.1 Atmos H.264 - FLUX]]></title>
                <link><![CDATA[https://sharemania.us/threads/abigail-2024-1080p-web-dl-ddp5-1-atmos-h-264-flux.243815/]]></link>
                <description><![CDATA[<article>
<blockquote class="messageText SelectQuoteContainer ugc baseHtml">
<div style="text-align: center"><img src="https://m.media-amazon.com/images/M/MV5BY2JlYjlkNzMtNTU3OS00NDVmLTk4NTYtYTM4ZTEwMGM4NDBiXkEyXkFqcGdeQXVyMTUzMTg2ODkz._V1_FMjpg_UY5000_.jpg" class="bbCodeImage LbImage" alt="[​IMG]" data-url="https://m.media-amazon.com/images/M/MV5BY2JlYjlkNzMtNTU3OS00NDVmLTk4NTYtYTM4ZTEwMGM4NDBiXkEyXkFqcGdeQXVyMTUzMTg2ODkz._V1_FMjpg_UY5000_.jpg" style=""> <br>
<br>
After a group of criminals kidnap the ballerina daughter of a powerful underworld figure, they retreat to an isolated mansion, unaware that they're locked inside with no normal little girl.<br>
<br>
Download:<br>
<br>
<div class="bbCodeBlock bbCodeVfcHH HiddenContent">
<div class="attribution type">Hidden Content:</div>
<blockquote>You must either reply or click 'Like' to see the hidden information contained here.</blockquote>
</div><b><span style="text-decoration: underline">Original Motion Picture Soundtrack</span></b><br>
<br>
<img src="https://picimg.net/12f8306cf3c9ed26193911810569719f.jpg" class="bbCodeImage LbImage" alt="[​IMG]" data-url="https://picimg.net/12f8306cf3c9ed26193911810569719f.jpg" style=""> <br>
<br>
Download:<br>
<br>
<div class="bbCodeBlock bbCodeVfcHH HiddenContent">
<div class="attribution type">Hidden Content:</div>
<blockquote>You must either reply or click 'Like' to see the hidden information contained here.</blockquote>
</div></div>
<div class="messageTextEndMarker">&nbsp;</div>
</blockquote>
</article>]]></description>
                <author><![CDATA[sunnyillion]]></author>
                </item>

                
                <item>
                <title><![CDATA[【Actresses】Jami Ferrell - Video Calendar (1998)720p]]></title>
                <link><![CDATA[https://sharemania.us/threads/jami-ferrell-video-calendar-1998-720p.243797/]]></link>
                <description><![CDATA[<article>
<blockquote class="messageText SelectQuoteContainer ugc baseHtml">
thanks
<div class="messageTextEndMarker">&nbsp;</div>
</blockquote>
</article>]]></description>
                <author><![CDATA[piqeros]]></author>
                </item>

                
                <item>
                <title><![CDATA[【Cinema Center】MOVIE - Ghostbusters: Frozen Empire (2024) 1080p AMZN WEB-DL H264 - FLUX]]></title>
                <link><![CDATA[https://sharemania.us/threads/ghostbusters-frozen-empire-2024-1080p-amzn-web-dl-h264-flux.243812/]]></link>
                <description><![CDATA[<article>
<blockquote class="messageText SelectQuoteContainer ugc baseHtml">
Jami Ferrell - Video Calendar (1998)720p<br>
<br>
<a href="https://imgbox.com/35RsjcIB" target="_blank" class="externalLink" rel="nofollow"><img src="https://thumbs2.imgbox.com/cc/dc/35RsjcIB_t.jpg" class="bbCodeImage LbImage" alt="[​IMG]" data-url="https://thumbs2.imgbox.com/cc/dc/35RsjcIB_t.jpg"></a> <a href="https://imgbox.com/B8vvTIau" target="_blank" class="externalLink" rel="nofollow"><img src="https://thumbs2.imgbox.com/1f/0b/B8vvTIau_t.jpg" class="bbCodeImage LbImage" alt="[​IMG]" data-url="https://thumbs2.imgbox.com/1f/0b/B8vvTIau_t.jpg"></a> <a href="https://imgbox.com/WiabmMoP" target="_blank" class="externalLink" rel="nofollow"><img src="https://thumbs2.imgbox.com/49/90/WiabmMoP_t.jpg" class="bbCodeImage LbImage" alt="[​IMG]" data-url="https://thumbs2.imgbox.com/49/90/WiabmMoP_t.jpg"></a> <a href="https://imgbox.com/Ep2CoBtJ" target="_blank" class="externalLink" rel="nofollow"><img src="https://thumbs2.imgbox.com/e3/80/Ep2CoBtJ_t.jpg" class="bbCodeImage LbImage" alt="[​IMG]" data-url="https://thumbs2.imgbox.com/e3/80/Ep2CoBtJ_t.jpg"></a> <a href="https://imgbox.com/EFxK0a1A" target="_blank" class="externalLink" rel="nofollow"><img src="https://thumbs2.imgbox.com/c9/8d/EFxK0a1A_t.jpg" class="bbCodeImage LbImage" alt="[​IMG]" data-url="https://thumbs2.imgbox.com/c9/8d/EFxK0a1A_t.jpg"></a> <a href="https://imgbox.com/7ayAw7Rw" target="_blank" class="externalLink" rel="nofollow"><img src="https://thumbs2.imgbox.com/6b/e1/7ayAw7Rw_t.jpg" class="bbCodeImage LbImage" alt="[​IMG]" data-url="https://thumbs2.imgbox.com/6b/e1/7ayAw7Rw_t.jpg"></a><br>
Duration: 0:03:55 Resolution: 1280x720 Format: mp4 Size: 87.35 MB<br>
<a href="https://filejoker.net/xkvtru5gvsgt" target="_blank" class="externalLink" rel="nofollow">https://filejoker.net/xkvtru5gvsgt</a>
<div class="messageTextEndMarker">&nbsp;</div>
</blockquote>
</article>]]></description>
                <author><![CDATA[sunnyillion]]></author>
                </item>

                
                <item>
                <title><![CDATA[【Requests】[REQ AUD] - 2x Melon Music Kpop EPs (FLAC Lossless)]]></title>
                <link><![CDATA[https://sharemania.us/threads/2x-melon-music-kpop-eps-flac-lossless.243805/]]></link>
                <description><![CDATA[<article>
<blockquote class="messageText SelectQuoteContainer ugc baseHtml">
<div style="text-align: center"><img src="https://m.media-amazon.com/images/M/MV5BNGE5MWJmZWYtN2ZlMi00ZjY1LTlhYTUtMzQ2Y2IxZWQyYTA2XkEyXkFqcGdeQXVyMTUzMTg2ODkz._V1_FMjpg_UY3000_.jpg" class="bbCodeImage LbImage" alt="[​IMG]" data-url="https://m.media-amazon.com/images/M/MV5BNGE5MWJmZWYtN2ZlMi00ZjY1LTlhYTUtMzQ2Y2IxZWQyYTA2XkEyXkFqcGdeQXVyMTUzMTg2ODkz._V1_FMjpg_UY3000_.jpg" style=""> <br>
<br>
When the discovery of an ancient artifact unleashes an evil force, Ghostbusters new and old must join forces to protect their home and save the world from a second ice age.<br>
<br>
Download:<br>
<br>
<div class="bbCodeBlock bbCodeVfcHH HiddenContent">
<div class="attribution type">Hidden Content:</div>
<blockquote>You must either reply or click 'Like' to see the hidden information contained here.</blockquote>
</div></div>
<div class="messageTextEndMarker">&nbsp;</div>
</blockquote>
</article>]]></description>
                <author><![CDATA[Venus Fly Trap]]></author>
                </item>

                
                <item>
                <title><![CDATA[【HD Live Performances】WEB-RiP - Dua Lipa# Happy For You (Live) - SNL 2024]]></title>
                <link><![CDATA[https://sharemania.us/threads/dua-lipa-happy-for-you-live-snl-2024.243800/]]></link>
                <description><![CDATA[<article>
<blockquote class="messageText SelectQuoteContainer ugc baseHtml">
thanks
<div class="messageTextEndMarker">&nbsp;</div>
</blockquote>
</article>]]></description>
                <author><![CDATA[butchy07]]></author>
                </item>

                
                <item>
                <title><![CDATA[【Actresses】Carla Juri - Wetlands (2013)720p]]></title>
                <link><![CDATA[https://sharemania.us/threads/carla-juri-wetlands-2013-720p.243807/]]></link>
                <description><![CDATA[<article>
<blockquote class="messageText SelectQuoteContainer ugc baseHtml">
I live in the US and cannot purchase from this site and this is the only site I've found these two EPs in FLAC on YEARS<br>
<br>
Cityboy from Seoul<br>
<a href="https://m2.melon.com/album/music.htm?albumId=10362276" target="_blank" class="externalLink" rel="nofollow">https://m2.melon.com/album/music.htm?albumId=10362276</a><br>
Alien Issa Mixtape<br>
<a href="https://m2.melon.com/album/music.htm?albumId=10217572" target="_blank" class="externalLink" rel="nofollow">https://m2.melon.com/album/music.htm?albumId=10217572</a><br>
<br>
Thanks!!
<div class="messageTextEndMarker">&nbsp;</div>
</blockquote>
</article>]]></description>
                <author><![CDATA[piqeros]]></author>
                </item>

                
                <item>
                <title><![CDATA[【Music Videos】Raffaella Carrà - Pedro (Spanish Version) (1080p) (Clean)]]></title>
                <link><![CDATA[https://sharemania.us/threads/raffaella-carr%C3%A0-pedro-spanish-version-1080p-clean.243811/]]></link>
                <description><![CDATA[<article>
<blockquote class="messageText SelectQuoteContainer ugc baseHtml">
<a href="https://mega.nz/file/KZFCULrb#5KVDrAvPXRDghhmC8gDNpC53b-Zevxxv49gIsoLkBzM" target="_blank" class="externalLink" rel="nofollow">https://mega.nz/file/KZFCULrb#5KVDrAvPXRDghhmC8gDNpC53b-Zevxxv49gIsoLkBzM</a>
<div class="messageTextEndMarker">&nbsp;</div>
</blockquote>
</article>]]></description>
                <author><![CDATA[DJ-RoGeRs-BS]]></author>
                </item>

                
                <item>
                <title><![CDATA[【UPSCALED】Amy Winehouse - I heard love is blind (Live AOL Sessions, May 6th 2004) [MasterRip | 1080p AI Upscale | PCM 24-bit 48 kHz]]]></title>
                <link><![CDATA[https://sharemania.us/threads/amy-winehouse-i-heard-love-is-blind-live-aol-sessions-may-6th-2004-masterrip-1080p-ai-upscale-pcm-24-bit-48-khz.243803/]]></link>
                <description><![CDATA[<article>
<blockquote class="messageText SelectQuoteContainer ugc baseHtml">
Carla Juri - Wetlands (2013)720p<br>
<br>
<a href="https://imgbox.com/659SfUO8" target="_blank" class="externalLink" rel="nofollow"><img src="https://thumbs2.imgbox.com/59/fb/659SfUO8_t.jpg" class="bbCodeImage LbImage" alt="[​IMG]" data-url="https://thumbs2.imgbox.com/59/fb/659SfUO8_t.jpg"></a> <a href="https://imgbox.com/72jI7pMI" target="_blank" class="externalLink" rel="nofollow"><img src="https://thumbs2.imgbox.com/fe/27/72jI7pMI_t.jpg" class="bbCodeImage LbImage" alt="[​IMG]" data-url="https://thumbs2.imgbox.com/fe/27/72jI7pMI_t.jpg"></a> <a href="https://imgbox.com/X5cKQfTo" target="_blank" class="externalLink" rel="nofollow"><img src="https://thumbs2.imgbox.com/06/e4/X5cKQfTo_t.jpg" class="bbCodeImage LbImage" alt="[​IMG]" data-url="https://thumbs2.imgbox.com/06/e4/X5cKQfTo_t.jpg"></a> <a href="https://imgbox.com/zgv11dYL" target="_blank" class="externalLink" rel="nofollow"><img src="https://thumbs2.imgbox.com/9d/7e/zgv11dYL_t.jpg" class="bbCodeImage LbImage" alt="[​IMG]" data-url="https://thumbs2.imgbox.com/9d/7e/zgv11dYL_t.jpg"></a> <a href="https://imgbox.com/d9XWOGg3" target="_blank" class="externalLink" rel="nofollow"><img src="https://thumbs2.imgbox.com/5f/ad/d9XWOGg3_t.jpg" class="bbCodeImage LbImage" alt="[​IMG]" data-url="https://thumbs2.imgbox.com/5f/ad/d9XWOGg3_t.jpg"></a> <a href="https://imgbox.com/KRqCsaen" target="_blank" class="externalLink" rel="nofollow"><img src="https://thumbs2.imgbox.com/75/b5/KRqCsaen_t.jpg" class="bbCodeImage LbImage" alt="[​IMG]" data-url="https://thumbs2.imgbox.com/75/b5/KRqCsaen_t.jpg"></a><br>
Duration: 0:07:36 Resolution: 1280x720 Format: mp4 Size: 179.36 MB<br>
<a href="https://filejoker.net/gd2iplyvui6a" target="_blank" class="externalLink" rel="nofollow">https://filejoker.net/gd2iplyvui6a</a>
<div class="messageTextEndMarker">&nbsp;</div>
</blockquote>
</article>]]></description>
                <author><![CDATA[ADHDerby]]></author>
                </item>

                
                <item>
                <title><![CDATA[【Cinema Center】MOVIE - Godzilla Minus One (2023) (Colorized &amp; Black and White ) 1080p BluRay X264 - Will1869]]></title>
                <link><![CDATA[https://sharemania.us/threads/godzilla-minus-one-2023-colorized-black-and-white-1080p-bluray-x264-will1869.243814/]]></link>
                <description><![CDATA[<article>
<blockquote class="messageText SelectQuoteContainer ugc baseHtml">
<img src="https://i.ibb.co/1rbBfP6/Raffaella-Carr-Pedro-Spanish-Version-1080p-mp4-thumbs-2024-05-06-16-13-14.jpg" class="bbCodeImage LbImage" alt="[​IMG]" data-url="https://i.ibb.co/1rbBfP6/Raffaella-Carr-Pedro-Spanish-Version-1080p-mp4-thumbs-2024-05-06-16-13-14.jpg" style=""> <br>
<br>
<div class="ToggleTriggerAnchor bbCodeSpoilerContainer">
<button type="button" class="button bbCodeSpoilerButton ToggleTrigger Tooltip JsOnly" data-target="> .SpoilerTarget"><span>Spoiler: <span class="SpoilerTitle">MediaInfo</span></span></button>
<div class="SpoilerTarget bbCodeSpoilerText">Raffaella Carrà - Pedro (Spanish Version) (1080p).mp4<br>
Format : MPEG-4<br>
Format profile : Base Media / Version 2<br>
Codec ID : mp42 (mp42/mp41)<br>
File size : 255 MiB<br>
Duration : 3 min 27 s<br>
Overall bit rate mode : Variable<br>
Overall bit rate : 10.3 Mb/s<br>
Frame rate : 25.000 FPS<br>
Encoded date : 2024-05-06 20:10:03 UTC<br>
Tagged date : 2024-05-06 20:10:21 UTC<br>
TIM : 00:00:00:00<br>
TSC : 25<br>
TSZ : 1<br>
<br>
Video<br>
ID : 1<br>
Format : AVC<br>
Format/Info : Advanced Video Codec<br>
Format profile : Main@L4.1<br>
Format settings : CABAC / 4 Ref Frames<br>
Format settings, CABAC : Yes<br>
Format settings, Reference : 4 frames<br>
Codec ID : avc1<br>
Codec ID/Info : Advanced Video Coding<br>
Duration : 3 min 27 s<br>
Bit rate : 9 964 kb/s<br>
Width : 1 746 pixels<br>
Height : 1 080 pixels<br>
Display aspect ratio : 16:10<br>
Frame rate mode : Constant<br>
Frame rate : 25.000 FPS<br>
Color space : YUV<br>
Chroma subsampling : 4:2:0<br>
Bit depth : 8 bits<br>
Scan type : Progressive<br>
Bits/(Pixel*Frame) : 0.211<br>
Stream size : 247 MiB (97%)<br>
Language : English<br>
Encoded date : 2024-05-06 20:10:03 UTC<br>
Tagged date : 2024-05-06 20:10:03 UTC<br>
Color range : Limited<br>
Color primaries : BT.709<br>
Transfer characteristics : BT.709<br>
Matrix coefficients : BT.709<br>
Codec configuration box : avcC<br>
<br>
Audio<br>
ID : 2<br>
Format : AAC LC<br>
Format/Info : Advanced Audio Codec Low Complexity<br>
Codec ID : mp4a-40-2<br>
Duration : 3 min 27 s<br>
Source duration : 3 min 27 s<br>
Bit rate mode : Variable<br>
Bit rate : 317 kb/s<br>
Maximum bit rate : 433 kb/s<br>
Channel(s) : 2 channels<br>
Channel layout : L R<br>
Sampling rate : 48.0 kHz<br>
Frame rate : 46.875 FPS (1024 SPF)<br>
Compression mode : Lossy<br>
Stream size : 7.85 MiB (3%)<br>
Source stream size : 7.86 MiB (3%)<br>
Language : English<br>
Encoded date : 2024-05-06 20:10:03 UTC<br>
Tagged date : 2024-05-06 20:10:03 UTC</div>
</div><br>
<div class="bbCodeBlock bbCodeVfcHH HiddenContent">
<div class="attribution type">Hidden Content:</div>
<blockquote>You must reply before you can see the hidden data contained here.</blockquote>
</div>
<div class="messageTextEndMarker">&nbsp;</div>
</blockquote>
</article>]]></description>
                <author><![CDATA[sunnyillion]]></author>
                </item>

                </channel></rss>